<svg width="12" height="12" viewBox="0 0 12 12" fill="none" xmlns="http://www.w3.org/2000/svg">
<path d="M4.5 6C5.09334 6 5.67336 5.82405 6.16671 5.49441C6.66006 5.16477 7.04458 4.69623 7.27164 4.14805C7.4987 3.59987 7.55811 2.99667 7.44236 2.41473C7.3266 1.83279 7.04088 1.29824 6.62132 0.878681C6.20176 0.459123 5.66721 0.173401 5.08527 0.0576455C4.50333 -0.0581102 3.90013 0.00129986 3.35195 0.228363C2.80377 0.455426 2.33524 0.839943 2.00559 1.33329C1.67595 1.82664 1.5 2.40666 1.5 3C1.50079 3.79541 1.81712 4.55801 2.37956 5.12044C2.94199 5.68288 3.70459 5.99921 4.5 6ZM4.5 1C4.89556 1 5.28224 1.1173 5.61114 1.33706C5.94004 1.55682 6.19638 1.86918 6.34776 2.23463C6.49913 2.60009 6.53874 3.00222 6.46157 3.39018C6.3844 3.77814 6.19392 4.13451 5.91421 4.41422C5.63451 4.69392 5.27814 4.8844 4.89018 4.96157C4.50222 5.03874 4.10009 4.99914 3.73463 4.84776C3.36918 4.69639 3.05682 4.44004 2.83706 4.11114C2.6173 3.78224 2.5 3.39556 2.5 3C2.5 2.46957 2.71071 1.96086 3.08579 1.58579C3.46086 1.21072 3.96957 1 4.5 1Z" fill="white"/>
<path d="M10.5 5V3.5H9.5V5H8V6H9.5V7.5H10.5V6H12V5H10.5Z" fill="white"/>
<path d="M6.5215 7H2.4785C1.8214 7.00079 1.19145 7.26218 0.726813 7.72681C0.262176 8.19145 0.000793914 8.82141 0 9.4785L0 12H1V9.4785C1.0004 9.0865 1.15629 8.71067 1.43348 8.43348C1.71067 8.15629 2.0865 8.0004 2.4785 8H6.5215C6.9135 8.0004 7.28933 8.15629 7.56652 8.43348C7.84371 8.71067 7.9996 9.0865 8 9.4785V12H9V9.4785C8.99921 8.82141 8.73782 8.19145 8.27319 7.72681C7.80855 7.26218 7.1786 7.00079 6.5215 7Z" fill="white"/>
</svg>
