<svg width="366" height="62" viewBox="0 0 366 62" fill="none" xmlns="http://www.w3.org/2000/svg">
<path d="M91.0384 47.7867C90.9629 49.426 90.5207 50.8764 89.7119 52.1382C88.9031 53.3892 87.7653 54.3598 86.2987 55.05C84.8428 55.7402 83.1766 56.0852 81.3001 56.0852C78.2051 56.0852 75.7678 55.0769 73.9884 53.0603C72.209 51.0436 71.3193 48.1965 71.3193 44.5191V43.3544C71.3193 41.0466 71.7183 39.0299 72.5164 37.3044C73.3252 35.5682 74.4845 34.2309 75.9943 33.2927C77.5041 32.3437 79.2511 31.8691 81.2354 31.8691C84.0933 31.8691 86.3903 32.624 88.1266 34.1338C89.8629 35.6329 90.8496 37.7034 91.0869 40.3456H85.4251C85.382 38.9113 85.0207 37.8814 84.3413 37.2559C83.6619 36.6304 82.6266 36.3177 81.2354 36.3177C79.8227 36.3177 78.7874 36.8461 78.1296 37.9029C77.4717 38.9598 77.1266 40.6475 77.0943 42.9662V44.6323C77.0943 47.1451 77.407 48.9407 78.0325 50.0191C78.6688 51.0975 79.758 51.6367 81.3001 51.6367C82.605 51.6367 83.6026 51.3294 84.2928 50.7147C84.983 50.1 85.3496 49.124 85.3928 47.7867H91.0384ZM113.669 44.4706C113.669 46.7676 113.243 48.8005 112.391 50.5691C111.539 52.3377 110.326 53.7019 108.752 54.6617C107.188 55.6107 105.403 56.0852 103.397 56.0852C101.391 56.0852 99.6119 55.6269 98.0589 54.7103C96.506 53.7828 95.2928 52.4617 94.4192 50.747C93.5565 49.0323 93.1035 47.0642 93.0604 44.8426V43.5162C93.0604 41.2083 93.481 39.1755 94.3222 37.4177C95.1741 35.649 96.3874 34.2848 97.9619 33.325C99.5472 32.3652 101.348 31.8853 103.365 31.8853C105.36 31.8853 107.139 32.3598 108.703 33.3088C110.267 34.2579 111.48 35.6113 112.343 37.3691C113.216 39.1162 113.658 41.1221 113.669 43.3868V44.4706ZM107.894 43.4838C107.894 41.1436 107.501 39.3696 106.713 38.1618C105.937 36.9431 104.821 36.3338 103.365 36.3338C100.518 36.3338 99.0133 38.4691 98.8516 42.7397L98.8354 44.4706C98.8354 46.7784 99.2182 48.5524 99.9839 49.7926C100.75 51.0328 101.887 51.6529 103.397 51.6529C104.831 51.6529 105.937 51.0436 106.713 49.825C107.49 48.6063 107.883 46.8539 107.894 44.5676V43.4838ZM128.066 38.7441C128.066 38 127.775 37.4015 127.193 36.9485C126.621 36.4956 125.845 36.2691 124.863 36.2691C123.947 36.2691 123.208 36.4902 122.647 36.9324C122.097 37.3637 121.822 37.9353 121.822 38.6471H116.16C116.16 37.353 116.527 36.1936 117.26 35.1691C118.004 34.1446 119.051 33.3466 120.399 32.775C121.747 32.1927 123.235 31.9015 124.863 31.9015C127.667 31.9015 129.846 32.4892 131.399 33.6647C132.962 34.8402 133.744 36.4848 133.744 38.5985C133.744 39.677 133.426 40.6637 132.79 41.5588C132.164 42.4431 131.296 43.1441 130.185 43.6618C131.458 44.1147 132.428 44.8049 133.097 45.7323C133.776 46.649 134.116 47.7921 134.116 49.1617C134.116 51.2755 133.275 52.9578 131.593 54.2088C129.91 55.449 127.667 56.0691 124.863 56.0691C122.264 56.0691 120.107 55.4598 118.393 54.2411C116.678 53.0117 115.821 51.3402 115.821 49.2264H121.515C121.515 49.9274 121.827 50.5206 122.453 51.0059C123.078 51.4804 123.882 51.7176 124.863 51.7176C125.92 51.7176 126.777 51.4696 127.435 50.9735C128.093 50.4774 128.422 49.8304 128.422 49.0323C128.422 47.8676 128.142 47.048 127.581 46.5735C127.02 46.0882 126.201 45.8456 125.122 45.8456H122.097V41.6397H125.316C127.15 41.5858 128.066 40.6206 128.066 38.7441ZM159.497 61.5529H154.401V55.7617H141.573V61.5367H136.316L135.912 51.3941H137.578C138.451 50.8117 139.152 49.8142 139.681 48.4014C140.22 46.9779 140.603 44.9397 140.829 42.2868L141.557 32.2088H157.588V51.3941H160.095L159.497 61.5529ZM144 51.3941H151.926V36.5927H146.912L146.475 42.4809C146.151 46.2985 145.326 49.2696 144 51.3941ZM175.69 51.3617H167.909L166.55 55.7617H160.484L169.122 32.2088H174.46L183.163 55.7617H177.065L175.69 51.3617ZM169.268 46.9779H174.331L171.791 38.8088L169.268 46.9779ZM201.442 36.5927H194.373V55.7617H188.695V36.5927H181.756V32.2088H201.442V36.5927ZM218.46 45.7809H209.531V51.3941H220.078V55.7617H203.853V32.2088H220.11V36.5927H209.531V41.5588H218.46V45.7809ZM242.207 32.2088V55.7617H236.529V36.5927H231.239L230.851 44.5029C230.689 47.2314 230.312 49.4098 229.719 51.0382C229.126 52.6666 228.279 53.8583 227.179 54.6132C226.09 55.3573 224.602 55.7402 222.714 55.7617H221.194V51.3941L221.986 51.3132C223.119 51.1514 223.938 50.4612 224.445 49.2426C224.952 48.0132 225.281 45.948 225.432 43.0471L225.836 32.2088H242.207ZM259.564 32.2088H265.242V55.7617H259.564V40.9118L251.104 55.7617H245.426V32.2088H251.104V47.075L259.564 32.2088Z" fill="#5B5C78"/>
<path d="M75.752 15.1835H74.8911V18.1445H73.3981V10.8986H74.8911V13.8H75.5729L77.3445 10.8986H79.166L76.9315 14.3275L79.3999 18.1445H77.6182L75.752 15.1835ZM84.5656 12.7599V18.1445H83.1273V13.9244H81.8583L81.7687 15.5866C81.7123 16.4724 81.5381 17.1177 81.2462 17.5225C80.9542 17.9272 80.5196 18.1346 79.9423 18.1445H79.4546L79.4397 16.975L79.6188 16.9601C79.8776 16.9402 80.0667 16.7876 80.1862 16.5023C80.3056 16.2169 80.3802 15.7309 80.4101 15.0441L80.5096 12.7599H84.5656ZM88.7957 18.1445C88.7293 18.0151 88.6812 17.8542 88.6513 17.6618C88.303 18.05 87.8501 18.2441 87.2927 18.2441C86.7652 18.2441 86.3273 18.0914 85.9789 17.7862C85.6339 17.481 85.4613 17.0961 85.4613 16.6316C85.4613 16.061 85.672 15.6231 86.0934 15.3178C86.518 15.0126 87.1302 14.8583 87.9297 14.855H88.5916V14.5465C88.5916 14.2976 88.5269 14.0986 88.3975 13.9493C88.2715 13.8 88.0707 13.7253 87.7954 13.7253C87.5532 13.7253 87.3624 13.7834 87.2231 13.8995C87.087 14.0156 87.019 14.1749 87.019 14.3773H85.5808C85.5808 14.0654 85.677 13.7767 85.8694 13.5113C86.0619 13.2459 86.3339 13.0386 86.6856 12.8893C87.0373 12.7366 87.4321 12.6603 87.87 12.6603C88.5336 12.6603 89.0594 12.8279 89.4476 13.163C89.8391 13.4947 90.0348 13.9625 90.0348 14.5664V16.9004C90.0381 17.4113 90.1095 17.7978 90.2488 18.0599V18.1445H88.7957ZM87.6063 17.1442C87.8186 17.1442 88.0143 17.0978 88.1935 17.0049C88.3726 16.9087 88.5054 16.7809 88.5916 16.6217V15.6961H88.0541C87.3342 15.6961 86.951 15.9449 86.9046 16.4425L86.8996 16.5271C86.8996 16.7063 86.9626 16.8539 87.0887 16.9701C87.2148 17.0862 87.3873 17.1442 87.6063 17.1442ZM93.3791 17.0845C93.6445 17.0845 93.8602 17.0115 94.0261 16.8655C94.1919 16.7196 94.2782 16.5255 94.2848 16.2833H95.6335C95.6302 16.6482 95.5306 16.9833 95.3349 17.2886C95.1391 17.5905 94.8704 17.826 94.5287 17.9952C94.1903 18.1611 93.8154 18.2441 93.404 18.2441C92.6343 18.2441 92.0271 18.0002 91.5825 17.5125C91.138 17.0215 90.9157 16.3447 90.9157 15.4821V15.3875C90.9157 14.5581 91.1363 13.8962 91.5776 13.4018C92.0188 12.9075 92.6243 12.6603 93.394 12.6603C94.0675 12.6603 94.6067 12.8528 95.0114 13.2376C95.4195 13.6192 95.6269 14.1284 95.6335 14.7654H94.2848C94.2782 14.4867 94.1919 14.2611 94.0261 14.0886C93.8602 13.9128 93.6412 13.8249 93.3691 13.8249C93.0341 13.8249 92.7802 13.9476 92.6077 14.1931C92.4385 14.4353 92.3539 14.8301 92.3539 15.3775V15.5268C92.3539 16.0809 92.4385 16.479 92.6077 16.7212C92.7769 16.9634 93.0341 17.0845 93.3791 17.0845ZM100.924 13.9144H99.1967V18.1445H97.7535V13.9144H96.0565V12.7599H100.924V13.9144ZM103.81 18.2441C103.02 18.2441 102.377 18.0019 101.879 17.5175C101.385 17.0331 101.138 16.3878 101.138 15.5816V15.4422C101.138 14.9015 101.242 14.4187 101.451 13.9941C101.66 13.5661 101.955 13.2376 102.337 13.0087C102.722 12.7765 103.16 12.6603 103.651 12.6603C104.387 12.6603 104.966 12.8926 105.388 13.3571C105.812 13.8215 106.025 14.4801 106.025 15.3328V15.92H102.596C102.642 16.2717 102.782 16.5537 103.014 16.766C103.249 16.9784 103.546 17.0845 103.905 17.0845C104.459 17.0845 104.892 16.8838 105.203 16.4824L105.91 17.2736C105.694 17.5789 105.403 17.8177 105.034 17.9903C104.666 18.1595 104.258 18.2441 103.81 18.2441ZM103.646 13.8249C103.36 13.8249 103.128 13.9211 102.949 14.1135C102.773 14.3059 102.66 14.5813 102.611 14.9396H104.611V14.8251C104.605 14.5066 104.518 14.2611 104.352 14.0886C104.187 13.9128 103.951 13.8249 103.646 13.8249ZM111.693 15.502C111.693 16.3314 111.504 16.9966 111.126 17.4976C110.751 17.9952 110.243 18.2441 109.603 18.2441C109.059 18.2441 108.619 18.055 108.284 17.6767V20.2148H106.846V12.7599H108.179L108.229 13.2874C108.578 12.8693 109.032 12.6603 109.593 12.6603C110.256 12.6603 110.772 12.9058 111.141 13.3969C111.509 13.8879 111.693 14.5647 111.693 15.4273V15.502ZM110.255 15.3975C110.255 14.8965 110.165 14.51 109.986 14.2379C109.81 13.9659 109.553 13.8298 109.215 13.8298C108.763 13.8298 108.453 14.0024 108.284 14.3474V16.552C108.46 16.907 108.773 17.0845 109.225 17.0845C109.911 17.0845 110.255 16.5222 110.255 15.3975ZM119.81 18.1445H118.367V13.9244H116.565V18.1445H115.127V12.7599H119.81V18.1445ZM125.757 15.502C125.757 16.3314 125.568 16.9966 125.189 17.4976C124.815 17.9952 124.307 18.2441 123.667 18.2441C123.123 18.2441 122.683 18.055 122.348 17.6767V20.2148H120.91V12.7599H122.243L122.293 13.2874C122.641 12.8693 123.096 12.6603 123.657 12.6603C124.32 12.6603 124.836 12.9058 125.204 13.3969C125.573 13.8879 125.757 14.5647 125.757 15.4273V15.502ZM124.319 15.3975C124.319 14.8965 124.229 14.51 124.05 14.2379C123.874 13.9659 123.617 13.8298 123.278 13.8298C122.827 13.8298 122.517 14.0024 122.348 14.3474V16.552C122.524 16.907 122.837 17.0845 123.288 17.0845C123.975 17.0845 124.319 16.5222 124.319 15.3975ZM129.131 18.2441C128.341 18.2441 127.698 18.0019 127.2 17.5175C126.706 17.0331 126.458 16.3878 126.458 15.5816V15.4422C126.458 14.9015 126.563 14.4187 126.772 13.9941C126.981 13.5661 127.276 13.2376 127.658 13.0087C128.043 12.7765 128.481 12.6603 128.972 12.6603C129.708 12.6603 130.287 12.8926 130.708 13.3571C131.133 13.8215 131.345 14.4801 131.345 15.3328V15.92H127.917C127.963 16.2717 128.102 16.5537 128.335 16.766C128.57 16.9784 128.867 17.0845 129.225 17.0845C129.78 17.0845 130.212 16.8838 130.524 16.4824L131.231 17.2736C131.015 17.5789 130.723 17.8177 130.355 17.9903C129.987 18.1595 129.579 18.2441 129.131 18.2441ZM128.967 13.8249C128.681 13.8249 128.449 13.9211 128.27 14.1135C128.094 14.3059 127.981 14.5813 127.932 14.9396H129.932V14.8251C129.925 14.5066 129.839 14.2611 129.673 14.0886C129.507 13.9128 129.272 13.8249 128.967 13.8249ZM132.241 16.985C132.566 16.6399 132.787 16.2982 132.903 15.9598C133.019 15.6214 133.084 15.142 133.097 14.5216L133.137 12.7599H137.098V16.985H137.875V19.7619H136.437V18.1445H133.247V19.7619H131.778V16.985H132.241ZM133.938 16.985H135.665V13.9493H134.545L134.535 14.5962C134.506 15.5849 134.307 16.3812 133.938 16.985ZM143.2 18.1445H141.757V13.9244H139.955V18.1445H138.517V12.7599H143.2V18.1445ZM149.147 15.502C149.147 16.3314 148.958 16.9966 148.579 17.4976C148.205 17.9952 147.697 18.2441 147.057 18.2441C146.512 18.2441 146.073 18.055 145.738 17.6767V20.2148H144.3V12.7599H145.633L145.683 13.2874C146.031 12.8693 146.486 12.6603 147.047 12.6603C147.71 12.6603 148.226 12.9058 148.594 13.3969C148.963 13.8879 149.147 14.5647 149.147 15.4273V15.502ZM147.709 15.3975C147.709 14.8965 147.619 14.51 147.44 14.2379C147.264 13.9659 147.007 13.8298 146.668 13.8298C146.217 13.8298 145.907 14.0024 145.738 14.3474V16.552C145.914 16.907 146.227 17.0845 146.678 17.0845C147.365 17.0845 147.709 16.5222 147.709 15.3975ZM153.287 12.7599H154.725V18.1445H153.287V14.8202L151.486 18.1445H150.043V12.7599H151.486V16.0792L153.287 12.7599ZM160.493 18.1445H159.05V16.0743H157.264V18.1445H155.825V12.7599H157.264V14.9197H159.05V12.7599H160.493V18.1445ZM164.853 12.7599H166.291V18.1445H164.853V14.8202L163.051 18.1445H161.608V12.7599H163.051V16.0792L164.853 12.7599ZM170.67 16.4475L172.079 12.7599H173.88V18.1445H172.442V14.8401L171.153 18.1445H170.188L168.924 14.8948V18.1445H167.485V12.7599H169.272L170.67 16.4475ZM178.255 18.1445C178.188 18.0151 178.14 17.8542 178.11 17.6618C177.762 18.05 177.309 18.2441 176.752 18.2441C176.224 18.2441 175.786 18.0914 175.438 17.7862C175.093 17.481 174.92 17.0961 174.92 16.6316C174.92 16.061 175.131 15.6231 175.553 15.3178C175.977 15.0126 176.589 14.8583 177.389 14.855H178.051V14.5465C178.051 14.2976 177.986 14.0986 177.857 13.9493C177.731 13.8 177.53 13.7253 177.255 13.7253C177.012 13.7253 176.822 13.7834 176.682 13.8995C176.546 14.0156 176.478 14.1749 176.478 14.3773H175.04C175.04 14.0654 175.136 13.7767 175.329 13.5113C175.521 13.2459 175.793 13.0386 176.145 12.8893C176.496 12.7366 176.891 12.6603 177.329 12.6603C177.993 12.6603 178.519 12.8279 178.907 13.163C179.298 13.4947 179.494 13.9625 179.494 14.5664V16.9004C179.497 17.4113 179.569 17.7978 179.708 18.0599V18.1445H178.255ZM177.065 17.1442C177.278 17.1442 177.473 17.0978 177.653 17.0049C177.832 16.9087 177.964 16.7809 178.051 16.6217V15.6961H177.513C176.793 15.6961 176.41 15.9449 176.364 16.4425L176.359 16.5271C176.359 16.7063 176.422 16.8539 176.548 16.9701C176.674 17.0862 176.846 17.1442 177.065 17.1442ZM184.988 13.9144H183.261V18.1445H181.818V13.9144H180.121V12.7599H184.988V13.9144ZM187.875 18.2441C187.085 18.2441 186.441 18.0019 185.944 17.5175C185.449 17.0331 185.202 16.3878 185.202 15.5816V15.4422C185.202 14.9015 185.307 14.4187 185.516 13.9941C185.725 13.5661 186.02 13.2376 186.401 13.0087C186.786 12.7765 187.224 12.6603 187.715 12.6603C188.452 12.6603 189.031 12.8926 189.452 13.3571C189.877 13.8215 190.089 14.4801 190.089 15.3328V15.92H186.66C186.707 16.2717 186.846 16.5537 187.078 16.766C187.314 16.9784 187.611 17.0845 187.969 17.0845C188.523 17.0845 188.956 16.8838 189.268 16.4824L189.975 17.2736C189.759 17.5789 189.467 17.8177 189.099 17.9903C188.731 18.1595 188.322 18.2441 187.875 18.2441ZM187.71 13.8249C187.425 13.8249 187.193 13.9211 187.014 14.1135C186.838 14.3059 186.725 14.5813 186.675 14.9396H188.676V14.8251C188.669 14.5066 188.583 14.2611 188.417 14.0886C188.251 13.9128 188.016 13.8249 187.71 13.8249ZM195.593 12.7599V18.1445H194.155V13.9244H192.886L192.796 15.5866C192.74 16.4724 192.566 17.1177 192.274 17.5225C191.982 17.9272 191.547 18.1346 190.97 18.1445H190.482L190.467 16.975L190.647 16.9601C190.905 16.9402 191.094 16.7876 191.214 16.5023C191.333 16.2169 191.408 15.7309 191.438 15.0441L191.537 12.7599H195.593ZM199.181 18.2441C198.392 18.2441 197.748 18.0019 197.25 17.5175C196.756 17.0331 196.509 16.3878 196.509 15.5816V15.4422C196.509 14.9015 196.613 14.4187 196.822 13.9941C197.031 13.5661 197.327 13.2376 197.708 13.0087C198.093 12.7765 198.531 12.6603 199.022 12.6603C199.759 12.6603 200.338 12.8926 200.759 13.3571C201.184 13.8215 201.396 14.4801 201.396 15.3328V15.92H197.967C198.014 16.2717 198.153 16.5537 198.385 16.766C198.621 16.9784 198.918 17.0845 199.276 17.0845C199.83 17.0845 200.263 16.8838 200.575 16.4824L201.281 17.2736C201.066 17.5789 200.774 17.8177 200.406 17.9903C200.037 18.1595 199.629 18.2441 199.181 18.2441ZM199.017 13.8249C198.732 13.8249 198.5 13.9211 198.32 14.1135C198.145 14.3059 198.032 14.5813 197.982 14.9396H199.983V14.8251C199.976 14.5066 199.89 14.2611 199.724 14.0886C199.558 13.9128 199.322 13.8249 199.017 13.8249ZM205.462 12.7599H206.9V18.1445H205.462V14.8202L203.66 18.1445H202.217V12.7599H203.66V16.0792L205.462 12.7599ZM206.308 10.5751C206.308 11.0164 206.149 11.3731 205.83 11.6451C205.515 11.9172 205.1 12.0532 204.586 12.0532C204.072 12.0532 203.655 11.9188 203.337 11.6501C203.022 11.3813 202.864 11.023 202.864 10.5751H203.884C203.884 10.7842 203.946 10.9467 204.068 11.0628C204.194 11.1756 204.367 11.2321 204.586 11.2321C204.802 11.2321 204.971 11.1756 205.094 11.0628C205.216 10.9467 205.278 10.7842 205.278 10.5751H206.308ZM214.206 13.9244H211.976V18.1445H210.538V12.7599H214.206V13.9244ZM214.882 17.4379C214.882 17.2089 214.959 17.0231 215.111 16.8805C215.267 16.7378 215.461 16.6665 215.694 16.6665C215.929 16.6665 216.123 16.7378 216.276 16.8805C216.432 17.0231 216.51 17.2089 216.51 17.4379C216.51 17.6635 216.434 17.8476 216.281 17.9903C216.128 18.1296 215.933 18.1993 215.694 18.1993C215.458 18.1993 215.264 18.1296 215.111 17.9903C214.959 17.8476 214.882 17.6635 214.882 17.4379ZM226.358 14.6858C226.358 15.3991 226.232 16.0245 225.98 16.562C225.728 17.0994 225.366 17.5142 224.895 17.8061C224.428 18.0981 223.89 18.2441 223.283 18.2441C222.682 18.2441 222.147 18.0997 221.676 17.8111C221.204 17.5225 220.839 17.1111 220.581 16.5769C220.322 16.0394 220.191 15.4223 220.188 14.7256V14.3673C220.188 13.654 220.315 13.0269 220.571 12.4862C220.83 11.942 221.193 11.5257 221.661 11.237C222.132 10.9451 222.669 10.7991 223.273 10.7991C223.877 10.7991 224.413 10.9451 224.88 11.237C225.352 11.5257 225.715 11.942 225.97 12.4862C226.229 13.0269 226.358 13.6523 226.358 14.3623V14.6858ZM224.846 14.3573C224.846 13.5976 224.71 13.0203 224.438 12.6255C224.165 12.2307 223.777 12.0333 223.273 12.0333C222.772 12.0333 222.386 12.229 222.113 12.6205C221.841 13.0087 221.704 13.5793 221.7 14.3325V14.6858C221.7 15.4257 221.836 15.9996 222.108 16.4077C222.381 16.8158 222.772 17.0198 223.283 17.0198C223.784 17.0198 224.169 16.8241 224.438 16.4326C224.706 16.0378 224.842 15.4638 224.846 14.7107V14.3573ZM230.021 13.0585C230.711 13.0585 231.262 13.2874 231.673 13.7452C232.085 14.2031 232.291 14.8251 232.291 15.6114V15.6811C232.291 16.4575 232.062 17.0795 231.604 17.5473C231.146 18.0151 230.531 18.249 229.758 18.249C228.981 18.249 228.362 17.9969 227.901 17.4926C227.443 16.985 227.214 16.2966 227.214 15.4273V15.1884C227.221 13.9775 227.425 13.0303 227.827 12.3468C228.231 11.66 228.838 11.2271 229.648 11.0479C230.073 10.955 230.346 10.8638 230.469 10.7742C230.592 10.6813 230.653 10.5536 230.653 10.391H231.818C231.818 10.9119 231.677 11.3034 231.395 11.5655C231.116 11.8276 230.618 12.03 229.902 12.1726C229.477 12.2589 229.142 12.4264 228.897 12.6753C228.651 12.9241 228.485 13.2741 228.399 13.7253C228.857 13.2807 229.398 13.0585 230.021 13.0585ZM229.748 14.223C229.406 14.223 229.137 14.3374 228.941 14.5664C228.749 14.7953 228.653 15.1669 228.653 15.6811C228.653 16.139 228.747 16.489 228.936 16.7312C229.125 16.9701 229.399 17.0895 229.758 17.0895C230.106 17.0895 230.375 16.9717 230.564 16.7362C230.753 16.5006 230.849 16.1539 230.852 15.6961V15.5766C230.852 15.1354 230.754 14.8003 230.559 14.5713C230.366 14.3391 230.096 14.223 229.748 14.223ZM237.73 18.1445H236.287V16.0743H234.5V18.1445H233.062V12.7599H234.5V14.9197H236.287V12.7599H237.73V18.1445ZM242.089 12.7599H243.528V18.1445H242.089V14.8202L240.288 18.1445H238.845V12.7599H240.288V16.0792L242.089 12.7599ZM249.296 18.1445H247.852V16.0743H246.066V18.1445H244.628V12.7599H246.066V14.9197H247.852V12.7599H249.296V18.1445ZM252.65 17.0845C252.915 17.0845 253.131 17.0115 253.297 16.8655C253.463 16.7196 253.549 16.5255 253.556 16.2833H254.904C254.901 16.6482 254.801 16.9833 254.606 17.2886C254.41 17.5905 254.141 17.826 253.799 17.9952C253.461 18.1611 253.086 18.2441 252.675 18.2441C251.905 18.2441 251.298 18.0002 250.853 17.5125C250.409 17.0215 250.186 16.3447 250.186 15.4821V15.3875C250.186 14.5581 250.407 13.8962 250.848 13.4018C251.29 12.9075 251.895 12.6603 252.665 12.6603C253.338 12.6603 253.877 12.8528 254.282 13.2376C254.69 13.6192 254.898 14.1284 254.904 14.7654H253.556C253.549 14.4867 253.463 14.2611 253.297 14.0886C253.131 13.9128 252.912 13.8249 252.64 13.8249C252.305 13.8249 252.051 13.9476 251.878 14.1931C251.709 14.4353 251.625 14.8301 251.625 15.3775V15.5268C251.625 16.0809 251.709 16.479 251.878 16.7212C252.048 16.9634 252.305 17.0845 252.65 17.0845ZM257.835 16.1589H257.258V18.1445H255.82V12.7599H257.258V14.7853H257.771L258.945 12.7599H260.762L259 15.3228L260.926 18.1445H259.01L257.835 16.1589ZM264.589 18.1445C264.522 18.0151 264.474 17.8542 264.444 17.6618C264.096 18.05 263.643 18.2441 263.086 18.2441C262.558 18.2441 262.12 18.0914 261.772 17.7862C261.427 17.481 261.254 17.0961 261.254 16.6316C261.254 16.061 261.465 15.6231 261.886 15.3178C262.311 15.0126 262.923 14.8583 263.723 14.855H264.385V14.5465C264.385 14.2976 264.32 14.0986 264.191 13.9493C264.064 13.8 263.864 13.7253 263.588 13.7253C263.346 13.7253 263.155 13.7834 263.016 13.8995C262.88 14.0156 262.812 14.1749 262.812 14.3773H261.374C261.374 14.0654 261.47 13.7767 261.662 13.5113C261.855 13.2459 262.127 13.0386 262.479 12.8893C262.83 12.7366 263.225 12.6603 263.663 12.6603C264.327 12.6603 264.852 12.8279 265.241 13.163C265.632 13.4947 265.828 13.9625 265.828 14.5664V16.9004C265.831 17.4113 265.902 17.7978 266.042 18.0599V18.1445H264.589ZM263.399 17.1442C263.612 17.1442 263.807 17.0978 263.986 17.0049C264.166 16.9087 264.298 16.7809 264.385 16.6217V15.6961H263.847C263.127 15.6961 262.744 15.9449 262.698 16.4425L262.693 16.5271C262.693 16.7063 262.756 16.8539 262.882 16.9701C263.008 17.0862 263.18 17.1442 263.399 17.1442Z" fill="#5B5C78"/>
<path d="M50.234 36.5852C50.6685 36.5852 51.0208 36.233 51.0208 35.7985C51.0208 35.364 50.6685 35.0117 50.234 35.0117C49.7995 35.0117 49.4473 35.364 49.4473 35.7985C49.4473 36.233 49.7995 36.5852 50.234 36.5852Z" fill="#5B5C78"/>
<path d="M52.335 34.1523C52.1794 34.1521 52.0271 34.198 51.8975 34.2843C51.768 34.3706 51.6669 34.4933 51.6072 34.6371C51.5474 34.7808 51.5316 34.939 51.5618 35.0917C51.592 35.2445 51.6669 35.3848 51.7768 35.4949C51.8868 35.6051 52.027 35.6802 52.1796 35.7107C52.3323 35.7411 52.4906 35.7256 52.6344 35.6661C52.7782 35.6066 52.9012 35.5058 52.9877 35.3764C53.0742 35.2469 53.1204 35.0948 53.1204 34.9391C53.1204 34.7307 53.0377 34.5308 52.8905 34.3833C52.7432 34.2358 52.5434 34.1527 52.335 34.1523Z" fill="#5B5C78"/>
<path d="M54.3926 33.5156C54.2449 33.5154 54.1004 33.5589 53.9774 33.6408C53.8544 33.7227 53.7585 33.8392 53.7018 33.9756C53.645 34.1121 53.6301 34.2623 53.6587 34.4072C53.6874 34.5521 53.7584 34.6853 53.8628 34.7899C53.9671 34.8945 54.1002 34.9657 54.2451 34.9946C54.39 35.0236 54.5402 35.0089 54.6767 34.9524C54.8132 34.8959 54.9299 34.8002 55.0121 34.6774C55.0942 34.5545 55.138 34.4101 55.138 34.2624C55.138 34.0646 55.0595 33.8748 54.9198 33.7348C54.78 33.5948 54.5905 33.516 54.3926 33.5156Z" fill="#5B5C78"/>
<path d="M55.8737 41.0395C55.9007 41.0145 55.9211 40.9832 55.933 40.9484C56.545 39.0539 56.9369 37.0952 57.1008 35.1111C57.1008 35.0242 57.0828 34.9262 56.9807 34.9731C55.6004 35.5514 54.2712 36.1684 52.9295 36.7675C52.8988 36.7815 52.8721 36.803 52.8518 36.83C52.8316 36.857 52.8184 36.8886 52.8136 36.9221C52.4413 39.5329 51.7329 42.0846 50.7059 44.5136C50.6888 44.5536 50.6849 44.5979 50.6948 44.6402C50.7046 44.6825 50.7276 44.7205 50.7605 44.7488C50.7935 44.7771 50.8345 44.7942 50.8778 44.7976C50.9211 44.801 50.9644 44.7905 51.0013 44.7676C52.7253 43.6612 54.355 42.4143 55.8737 41.0395Z" fill="#5B5C78"/>
<path d="M42.4819 56.3652C48.1955 53.603 52.7062 48.8528 55.1695 43.0041C55.1881 42.9623 55.192 42.9154 55.1806 42.8711C55.1692 42.8268 55.1432 42.7877 55.1067 42.76C55.0703 42.7324 55.0256 42.7178 54.9798 42.7188C54.9341 42.7198 54.89 42.7361 54.8548 42.7653C53.3283 44.0165 51.7056 45.1453 50.0017 46.1415C49.9683 46.1608 49.9414 46.1896 49.9244 46.2243C48.0582 49.9755 45.4507 53.3093 42.2597 56.0243C42.2195 56.0559 42.1927 56.1013 42.1844 56.1517C42.1761 56.202 42.1869 56.2537 42.2148 56.2965C42.2427 56.3392 42.2855 56.37 42.335 56.3827C42.3844 56.3955 42.4368 56.3892 42.4819 56.3652Z" fill="#5B5C78"/>
<path d="M48.384 47.0424C43.2073 49.7348 37.4702 51.1726 31.6356 51.2398C31.583 51.2398 31.5325 51.2605 31.4951 51.2975C31.4576 51.3344 31.4362 51.3846 31.4355 51.4372C31.4175 53.3613 31.4037 55.7644 31.4023 58.7306C31.4023 58.7856 31.4242 58.8382 31.463 58.877C31.5018 58.9159 31.5545 58.9377 31.6094 58.9377C34.0773 58.9017 36.5275 58.5145 38.8863 57.7879C38.9063 57.7812 38.9253 57.772 38.9428 57.7603C42.9606 55.0983 46.288 51.5193 48.6504 47.3184C48.6696 47.2808 48.6765 47.2381 48.6703 47.1964C48.664 47.1546 48.6449 47.1158 48.6156 47.0854C48.5863 47.0551 48.5482 47.0346 48.5067 47.0269C48.4652 47.0191 48.4223 47.0246 48.384 47.0424Z" fill="#5B5C78"/>
<path d="M52.094 37.4953C52.0997 37.459 52.0955 37.4217 52.0818 37.3875C52.0681 37.3533 52.0454 37.3235 52.0161 37.3011C51.9868 37.2788 51.9521 37.2647 51.9155 37.2605C51.8789 37.2563 51.8418 37.2621 51.8082 37.2773C51.0449 37.6292 49.2119 38.4753 48.2361 38.9101C47.8385 39.0854 47.637 39.0302 47.4659 38.5871C47.274 38.093 47.02 37.6209 46.7647 37.1061C46.7403 37.0572 46.6977 37.0199 46.6461 37.002C46.5945 36.9842 46.5379 36.9874 46.4886 37.0109C45.9144 37.2745 45.3665 37.5147 44.8323 37.7893C44.4789 37.9715 44.3133 37.8887 44.1559 37.5381C43.706 36.5347 43.2242 35.545 42.7453 34.5263L41.9489 32.8258C41.7584 32.4228 41.572 32.0225 41.3829 31.6236L41.3595 31.5753C41.1966 31.233 41.0558 30.939 40.8847 30.6022C40.8371 30.5415 40.7769 30.4917 40.7083 30.4565C40.6397 30.4212 40.5642 30.4012 40.4871 30.3979C40.2434 30.4241 40.0053 30.4889 39.7818 30.5898C38.552 31.1502 37.3635 31.0039 36.1392 30.5194C35.3573 30.225 34.5608 29.9711 33.7527 29.7588C33.1887 29.6018 32.5888 29.6328 32.0439 29.8472C31.3759 30.1108 30.7147 30.391 30.0453 30.6505C29.8259 30.735 29.6274 30.8661 29.4637 31.0349C29.3 31.2036 29.1749 31.4059 29.097 31.6277C28.8072 32.4683 28.3958 33.2841 28.5518 34.2116C28.5946 34.4164 28.6897 34.6067 28.8279 34.7638C28.8586 34.8017 28.9024 34.8268 28.9507 34.8341C29.1637 34.8664 29.3814 34.8474 29.5856 34.7789C29.6056 34.7746 29.625 34.7681 29.6436 34.7596C29.8836 34.6655 30.0985 34.5172 30.2716 34.3262C30.3151 34.2944 30.3521 34.2545 30.3807 34.2089C30.8541 33.7078 31.1992 33.3669 31.3828 32.91C31.4443 32.7764 31.4844 32.6338 31.5015 32.4877C31.5608 32.144 31.7113 31.7147 31.7886 31.7906C31.8659 31.8665 31.8617 32.2378 31.8521 32.4587C31.8383 32.7982 31.9583 32.9556 32.3076 32.9073C32.9287 32.8203 33.4449 32.9873 33.6878 33.4276C33.6878 33.4276 33.8576 33.8252 34.4636 34.3441C34.7714 34.6064 35.5995 35.5105 35.7293 35.6527C37.1855 37.2441 38.6445 38.8273 40.1227 40.4022C40.552 40.8563 40.7439 41.3353 40.4982 41.9205C40.2525 42.5058 39.7984 42.7211 39.1897 42.6742C39.14 42.6742 39.042 42.6479 39.0047 42.6894C38.9674 42.7308 39.0227 42.8025 39.0254 42.8108C39.289 43.5134 39.2269 44.0779 38.5396 44.4823C37.7721 44.9337 37.2228 44.5734 36.7079 44.0172C36.683 43.9905 36.6514 43.971 36.6163 43.9609C36.5812 43.9507 36.544 43.9503 36.5087 43.9597C36.4735 43.969 36.4414 43.9878 36.4159 44.014C36.3905 44.0401 36.3726 44.0727 36.3642 44.1083C36.2372 44.6604 35.9584 45.0414 35.3773 45.1766C34.7962 45.3119 34.4111 45.0386 34.0371 44.6728C34.0117 44.6479 33.9802 44.6302 33.9458 44.6214C33.9114 44.6126 33.8752 44.613 33.841 44.6227C33.8068 44.6324 33.7758 44.6509 33.7511 44.6764C33.7264 44.702 33.7088 44.7336 33.7003 44.7681C33.6823 44.8357 33.6644 44.9061 33.6437 44.9613C33.5814 45.1631 33.4697 45.3461 33.3186 45.4936C33.1675 45.6412 32.982 45.7486 32.7788 45.8061C32.5756 45.8636 32.3612 45.8693 32.1553 45.8228C31.9493 45.7762 31.7582 45.6789 31.5995 45.5396L31.5291 45.4775C31.5042 46.3264 31.467 47.8778 31.438 50.3789C31.4376 50.4067 31.4428 50.4343 31.4531 50.4601C31.4635 50.4858 31.4789 50.5093 31.4984 50.5291C31.518 50.5488 31.5412 50.5645 31.5669 50.5753C31.5925 50.586 31.62 50.5915 31.6478 50.5915C37.8967 50.5151 44.022 48.8396 49.4397 45.7246C49.4764 45.7036 49.5058 45.6718 49.5239 45.6335C50.7651 43.0575 51.6306 40.3169 52.094 37.4953Z" fill="#5B5C78"/>
<path d="M9.03038 32.5762C9.02385 24.6411 12.091 17.0119 17.5882 11.2895C17.6228 11.2537 17.6431 11.2065 17.6452 11.1567C17.6473 11.107 17.631 11.0582 17.5995 11.0197C17.568 10.9812 17.5234 10.9556 17.4742 10.9478C17.425 10.94 17.3747 10.9506 17.3328 10.9775C12.4351 14.0713 8.71037 18.7114 6.74907 24.1623C4.78776 29.6131 4.70216 35.5627 6.50584 41.0678C6.51798 41.1025 6.53834 41.1337 6.56519 41.1589C7.98059 42.4325 9.49186 43.5954 11.0856 44.6372C11.1224 44.6669 11.1684 44.683 11.2157 44.6827C11.263 44.6823 11.3087 44.6656 11.345 44.6353C11.3813 44.605 11.406 44.563 11.4149 44.5165C11.4237 44.4701 11.4161 44.422 11.3934 44.3804C9.83171 40.6411 9.02848 36.6286 9.03038 32.5762Z" fill="#5B5C78"/>
<path d="M30.5905 51.2263C24.7031 51.1443 18.919 49.6665 13.7138 46.9143C13.6752 46.8939 13.6311 46.8864 13.5879 46.8929C13.5447 46.8994 13.5048 46.9196 13.4739 46.9505C13.443 46.9813 13.4229 47.0213 13.4163 47.0645C13.4098 47.1076 13.4173 47.1517 13.4377 47.1903C15.7608 51.3594 19.0324 54.9232 22.9879 57.5936C23.0044 57.605 23.0226 57.6139 23.0418 57.6198C25.4674 58.4212 27.9981 58.8598 30.5519 58.9214C30.5793 58.9218 30.6065 58.9167 30.632 58.9064C30.6574 58.8962 30.6806 58.881 30.7001 58.8617C30.7196 58.8425 30.7351 58.8195 30.7457 58.7942C30.7563 58.7689 30.7617 58.7418 30.7617 58.7144C30.7617 55.7537 30.7769 53.3533 30.7962 51.4278C30.7962 51.401 30.7909 51.3745 30.7805 51.3497C30.7701 51.325 30.7549 51.3026 30.7357 51.2839C30.7166 51.2651 30.6939 51.2503 30.6689 51.2404C30.644 51.2306 30.6173 51.2258 30.5905 51.2263Z" fill="#5B5C78"/>
<path d="M19.5506 55.7295C16.4758 53.0331 13.9647 49.755 12.1619 46.0841C12.1454 46.0499 12.119 46.0215 12.086 46.0027C10.5144 45.0682 9.01326 44.0201 7.59456 42.8667C7.5589 42.8392 7.51516 42.8243 7.47015 42.8242C7.42513 42.8242 7.38136 42.839 7.34563 42.8664C7.3099 42.8938 7.28422 42.9322 7.27258 42.9757C7.26093 43.0191 7.26398 43.0653 7.28124 43.1068C9.66367 48.6964 13.9232 53.2786 19.3242 56.0622C19.3682 56.0844 19.4187 56.0898 19.4664 56.0775C19.5141 56.0652 19.5557 56.0359 19.5834 55.9952C19.6111 55.9545 19.623 55.9051 19.617 55.8562C19.611 55.8073 19.5874 55.7623 19.5506 55.7295Z" fill="#5B5C78"/>
<path d="M55.2615 24.4064L55.4685 24.3471C55.4958 24.3394 55.5211 24.3263 55.543 24.3084C55.5649 24.2906 55.5829 24.2684 55.5959 24.2432C55.6089 24.2181 55.6165 24.1906 55.6183 24.1624C55.6202 24.1342 55.6162 24.1059 55.6066 24.0793C54.2936 20.572 52.2503 17.3837 49.612 14.7257C46.9737 12.0677 43.8008 10.0006 40.3033 8.66149C40.2768 8.65147 40.2484 8.64714 40.22 8.64877C40.1917 8.65041 40.164 8.65798 40.1388 8.67099C40.1135 8.684 40.0913 8.70216 40.0735 8.7243C40.0557 8.74644 40.0428 8.77207 40.0356 8.79952L39.9748 9.00656C39.9607 9.05529 39.9653 9.10754 39.9878 9.15302C40.0103 9.19849 40.049 9.2339 40.0963 9.25225C43.5044 10.5586 46.5966 12.5731 49.1687 15.1628C51.7407 17.7525 53.7341 20.8583 55.0172 24.2753C55.0334 24.3243 55.0678 24.3652 55.1132 24.3896C55.1587 24.4139 55.2117 24.42 55.2615 24.4064Z" fill="#5B5C78"/>
<path d="M30.943 42.9432C30.511 42.5471 29.9892 42.5678 29.3695 42.9998C29.2446 43.0809 29.1156 43.1556 28.983 43.2234C28.97 43.2302 28.9552 43.2324 28.9409 43.2297C28.9265 43.2269 28.9135 43.2195 28.904 43.2085C28.8944 43.1975 28.8888 43.1836 28.8881 43.169C28.8874 43.1544 28.8917 43.14 28.9002 43.1282C29.2991 42.4159 30.0196 41.6664 29.1762 41.0715C28.7207 40.7485 27.7435 41.1516 27.3225 41.389C27.2466 41.4318 27.2024 41.3683 27.2549 41.2979C27.6441 40.772 28.4253 39.9093 27.7228 39.2841C26.8946 38.547 25.7614 39.7547 25.6316 39.7672C25.6207 39.7677 25.6098 39.7656 25.5999 39.761C25.59 39.7564 25.5813 39.7494 25.5747 39.7407C25.568 39.732 25.5636 39.7219 25.5617 39.7111C25.5599 39.7003 25.5607 39.6892 25.564 39.6788C25.5751 39.6278 25.8401 39.3641 25.956 39.2123C26.3494 38.7168 26.4115 38.1191 25.9905 37.6691C25.5695 37.2192 24.9374 37.2109 24.4225 37.6153C24.0871 37.8776 23.604 38.391 23.437 38.3993C23.0988 38.4172 22.6999 38.0487 22.3535 37.7768C21.5253 37.1253 21.5998 37.1791 22.0043 36.4075C23.0533 34.4075 23.9215 32.315 24.8946 30.2763C24.9981 30.061 25.0823 29.6662 24.9153 29.5351L11.6424 22.457C11.6165 22.4434 11.5879 22.4356 11.5587 22.4339C11.5294 22.4323 11.5002 22.4369 11.4729 22.4475C11.4455 22.4581 11.4208 22.4744 11.4003 22.4953C11.3798 22.5162 11.364 22.5413 11.354 22.5688C8.71498 30.0736 9.14859 38.3171 12.5603 45.5036C12.5784 45.5419 12.6078 45.5737 12.6445 45.5947C18.0944 48.7808 24.276 50.5022 30.5883 50.5914C30.6428 50.5914 30.6952 50.57 30.7342 50.5318C30.7732 50.4936 30.7956 50.4416 30.7967 50.3871C30.8339 47.1876 30.8836 45.5299 30.9057 44.9087C30.9337 44.7804 30.9753 44.6555 31.0299 44.5361C31.3488 43.868 31.3557 43.3159 30.943 42.9432ZM13.8178 35.2812C13.6147 35.275 13.4217 35.1916 13.2781 35.0479C13.1345 34.9043 13.051 34.7113 13.0448 34.5083C13.0447 34.3904 13.0716 34.2741 13.1236 34.1683C13.1756 34.0625 13.2512 33.9701 13.3446 33.8982C13.438 33.8263 13.5466 33.7768 13.6622 33.7536C13.7778 33.7304 13.8971 33.734 14.011 33.7643C14.0328 33.7688 14.0538 33.7767 14.0731 33.7878C15.031 34.3081 14.4789 35.2771 13.8178 35.2812ZM16.1739 35.8168C16.1584 35.8378 16.1398 35.8564 16.1187 35.872C15.3112 36.4448 14.4223 35.5559 14.9965 34.7498C15.0113 34.7281 15.0301 34.7094 15.0518 34.6946C15.8578 34.119 16.7481 35.0093 16.1739 35.8168ZM17.3127 37.0825C17.1096 37.078 16.916 36.9954 16.7721 36.8521C16.6282 36.7087 16.545 36.5154 16.5397 36.3123C16.5477 36.1091 16.6328 35.9165 16.7776 35.7737C16.9225 35.6309 17.1162 35.5486 17.3196 35.5435C17.5226 35.5478 17.7159 35.6317 17.8579 35.777C17.9998 35.9223 18.0791 36.1175 18.0787 36.3206C18.0802 36.4214 18.0614 36.5215 18.0234 36.6149C17.9854 36.7083 17.9289 36.7931 17.8574 36.8642C17.7859 36.9353 17.7009 36.9913 17.6073 37.0288C17.5137 37.0663 17.4135 37.0846 17.3127 37.0825Z" fill="#5B5C78"/>
<path d="M26.0408 14.4377C25.8791 14.4127 25.7299 14.3362 25.6152 14.2196C25.5006 14.1029 25.4266 13.9524 25.4045 13.7903L24.7143 8.77851L20.7212 10.3714L20.4134 11.8579C20.3856 11.9949 20.3106 12.1177 20.2015 12.205C20.0923 12.2923 19.956 12.3384 19.8164 12.3355C19.6767 12.3325 19.5424 12.2806 19.4371 12.1888C19.3318 12.097 19.2621 11.9711 19.2401 11.8331L19.0841 10.6391L18.4423 10.9069C18.3923 10.9282 18.3372 10.9349 18.2836 10.9262C18.234 10.9186 18.1873 10.8984 18.1479 10.8674C18.1085 10.8365 18.0777 10.7959 18.0586 10.7496C18.0288 10.6778 18.0286 10.5971 18.0581 10.5252C18.0876 10.4533 18.1443 10.396 18.2159 10.3658L18.8564 10.0981L18.0199 9.27955C17.9593 9.20987 17.9156 9.12707 17.8923 9.03767C17.869 8.94826 17.8668 8.85467 17.8858 8.76425C17.9048 8.67384 17.9445 8.58906 18.0018 8.51657C18.0591 8.44408 18.1324 8.38586 18.2159 8.34648C18.2999 8.30707 18.3918 8.28768 18.4845 8.28983C18.5772 8.29199 18.6681 8.31563 18.7501 8.3589L20.0904 9.06975L23.7826 6.8047L20.3609 3.07793C20.2548 2.96168 20.1874 2.81537 20.1679 2.65919C20.1485 2.50301 20.178 2.34464 20.2523 2.20592C20.3267 2.0672 20.4423 1.95497 20.5831 1.8847C20.7239 1.81443 20.8831 1.78958 21.0386 1.81358C21.1432 1.83031 21.2433 1.86836 21.3326 1.92539L23.265 3.16764L23.4665 2.92747C23.5085 2.87592 23.5631 2.83612 23.625 2.81193C23.687 2.78774 23.7541 2.78 23.8199 2.78944C23.8879 2.80064 23.9517 2.82969 24.0049 2.87364C24.0823 2.93885 24.1308 3.03202 24.1399 3.13285C24.1489 3.23368 24.1177 3.334 24.0532 3.41195L23.9151 3.58035L24.6881 4.07863L24.9421 3.77359C25.007 3.69562 25.1003 3.64665 25.2014 3.63746C25.3025 3.62827 25.4031 3.65961 25.4811 3.72459C25.559 3.78957 25.608 3.88286 25.6172 3.98394C25.6264 4.08502 25.5951 4.18562 25.5301 4.26359L25.3355 4.49962L26.753 5.41199L30.3707 3.7101C30.3707 3.7101 31.5592 3.18283 32.3031 3.29601C32.4025 3.30588 32.4982 3.33886 32.5826 3.3923C32.6669 3.44575 32.7376 3.51818 32.789 3.60381C33.3411 4.62661 31.2514 5.70323 31.2514 5.70323L27.6737 7.3858L27.5011 8.83234L28.0643 8.87651H28.0933C28.192 8.89068 28.2813 8.94288 28.3421 9.02197C28.4029 9.10106 28.4303 9.20078 28.4186 9.29984C28.4069 9.3989 28.357 9.48947 28.2794 9.55221C28.2019 9.61495 28.1029 9.6449 28.0035 9.63566L27.4114 9.58874L27.3024 10.4956L27.6419 10.5218H27.6709C27.7664 10.5395 27.8516 10.5928 27.9092 10.671C27.9668 10.7491 27.9925 10.8463 27.9811 10.9427C27.9697 11.0392 27.922 11.1277 27.8477 11.1902C27.7734 11.2528 27.6782 11.2847 27.5812 11.2796L27.2113 11.2506L26.9117 13.7765C26.896 13.9043 26.8481 14.026 26.7725 14.1303C26.697 14.2346 26.5962 14.318 26.4797 14.3728C26.3433 14.4381 26.1901 14.4603 26.0408 14.4363" fill="#5B5C78"/>
<path d="M32.7882 3.60348C32.3631 2.82086 30.3631 3.70977 30.3631 3.70977L26.7453 5.41166L25.3347 4.49929L25.5293 4.2674C25.5943 4.18943 25.6256 4.08883 25.6164 3.98775C25.6073 3.88667 25.5583 3.79338 25.4803 3.7284C25.4023 3.66342 25.3017 3.63208 25.2007 3.64127C25.0996 3.65046 25.0063 3.69942 24.9413 3.7774L24.6873 4.08244L23.9144 3.58416L24.0524 3.41576C24.1139 3.33759 24.1425 3.23854 24.1321 3.13962C24.1218 3.04071 24.0733 2.94972 23.997 2.88596C23.9207 2.82221 23.8225 2.7907 23.7233 2.79813C23.6241 2.80556 23.5318 2.85134 23.4658 2.92576L23.2643 3.16593L21.3319 1.92367C21.1765 1.82894 20.9923 1.79306 20.8127 1.82256C20.6331 1.85206 20.47 1.94497 20.3531 2.08444C20.2362 2.22391 20.1732 2.40067 20.1755 2.58265C20.1778 2.76463 20.2453 2.93975 20.3657 3.07621L23.7874 6.80298L20.0896 9.06941L18.748 8.35857C18.6246 8.2934 18.4824 8.27343 18.3459 8.30211C18.2094 8.3308 18.0872 8.40632 18.0005 8.51562C17.9138 8.62491 17.8681 8.76108 17.8712 8.90054C17.8744 9.04 17.9262 9.17396 18.0178 9.27922L18.8529 10.0977L18.2124 10.3655C18.1769 10.3804 18.1446 10.4021 18.1175 10.4294C18.0904 10.4567 18.0689 10.4891 18.0543 10.5248C18.0397 10.5604 18.0322 10.5986 18.0323 10.6371C18.0325 10.6756 18.0402 10.7137 18.0551 10.7492C18.0699 10.7848 18.0916 10.817 18.119 10.8441C18.1463 10.8713 18.1787 10.8928 18.2143 10.9074C18.25 10.922 18.2881 10.9294 18.3266 10.9293C18.3651 10.9292 18.4033 10.9214 18.4388 10.9066L19.0806 10.6388L19.2366 11.8327C19.2585 11.9707 19.3283 12.0966 19.4336 12.1885C19.5389 12.2803 19.6731 12.3322 19.8128 12.3352C19.9525 12.3381 20.0888 12.2919 20.1979 12.2046C20.307 12.1174 20.382 11.9945 20.4098 11.8576L20.7176 10.371L24.7108 8.77817L25.4009 13.79C25.4271 13.9722 25.5185 14.1386 25.6581 14.2586C25.7976 14.3785 25.976 14.4438 26.16 14.4423C26.344 14.4407 26.5213 14.3726 26.6588 14.2503C26.7964 14.1281 26.885 13.9601 26.9082 13.7776L27.2077 11.2572L27.5777 11.2862C27.6769 11.2911 27.7743 11.2571 27.8489 11.1915C27.9236 11.1259 27.9698 11.0338 27.9777 10.9347C27.9856 10.8356 27.9546 10.7373 27.8913 10.6607C27.8279 10.584 27.7372 10.5351 27.6384 10.5242L27.2988 10.498L27.4079 9.59116L28 9.63809C28.0993 9.64301 28.1966 9.60907 28.2713 9.54345C28.346 9.47783 28.3922 9.38571 28.4001 9.2866C28.408 9.1875 28.377 9.08921 28.3136 9.01259C28.2503 8.93597 28.1596 8.88704 28.0608 8.87617L27.4976 8.832L27.6701 7.38547L31.2478 5.7029C31.2478 5.7029 33.3403 4.62627 32.7882 3.60348Z" fill="#8E8FA7"/>
<path d="M19.9556 9.58786L18.0388 10.4237C17.8976 10.4853 17.8331 10.6496 17.8946 10.7907L17.9112 10.8287C17.9728 10.9698 18.1371 11.0344 18.2782 10.9728L20.195 10.137C20.3362 10.0754 20.4007 9.9111 20.3392 9.76995L20.3226 9.73199C20.2611 9.59084 20.0968 9.52631 19.9556 9.58786Z" fill="#5B5C78"/>
<rect x="273" y="6" width="34" height="17" rx="3.86364" fill="#D13B3B"/>
<path d="M278.906 17.9102V11.3178H281.274C282.122 11.3178 282.767 11.4733 283.208 11.7842C283.651 12.0951 283.873 12.5463 283.873 13.138C283.873 13.479 283.795 13.7703 283.638 14.0118C283.481 14.2533 283.25 14.4314 282.945 14.5461C283.289 14.6366 283.553 14.8057 283.737 15.0532C283.921 15.3007 284.013 15.6025 284.013 15.9587C284.013 16.6047 283.808 17.0906 283.398 17.4166C282.99 17.7396 282.385 17.9041 281.582 17.9102H278.906ZM280.495 15.1075V16.6877H281.537C281.824 16.6877 282.044 16.6228 282.198 16.493C282.352 16.3602 282.429 16.1745 282.429 15.9361C282.429 15.3867 282.156 15.1105 281.609 15.1075H280.495ZM280.495 14.0661H281.324C281.671 14.0631 281.919 13.9997 282.067 13.876C282.214 13.7522 282.288 13.5696 282.288 13.3281C282.288 13.0504 282.208 12.8512 282.048 12.7305C281.888 12.6067 281.63 12.5448 281.274 12.5448H280.495V14.0661ZM288.98 15.1166H286.481V16.6877H289.433V17.9102H284.892V11.3178H289.442V12.5448H286.481V13.9348H288.98V15.1166ZM295.346 12.5448H293.368V17.9102H291.778V12.5448H289.836V11.3178H295.346V12.5448ZM299.222 16.6786H297.044L296.664 17.9102H294.966L297.384 11.3178H298.878L301.314 17.9102H299.607L299.222 16.6786ZM297.425 15.4516H298.842L298.131 13.1651L297.425 15.4516Z" fill="white"/>
</svg>
